<svg width="87" height="87" viewBox="0 0 87 87" fill="none" xmlns="http://www.w3.org/2000/svg">
<rect width="87" height="87" rx="6" fill="#2A2A2A"/>
<path fill-rule="evenodd" clip-rule="evenodd" d="M22.083 31.3747C22.083 26.8643 25.7393 23.208 30.2497 23.208H44.5413C49.0516 23.208 52.708 26.8643 52.708 31.3747V31.5211L59.2454 27.7631C60.8785 26.8242 62.9163 28.0032 62.9163 29.8872V45.1535C62.9163 46.9328 61.0795 48.1188 59.4578 47.3862L52.6784 44.3239C52.3238 48.5069 48.8162 51.7913 44.5413 51.7913H30.2497C25.7393 51.7913 22.083 48.1349 22.083 43.6247V31.3747ZM52.708 39.8566L58.833 42.6234V32.7101L52.708 36.231V39.8566ZM48.6247 31.3747C48.6247 29.1195 46.7966 27.2913 44.5413 27.2913H30.2497C27.9945 27.2913 26.1663 29.1195 26.1663 31.3747V43.6247C26.1663 45.8799 27.9945 47.708 30.2497 47.708H44.5413C46.7966 47.708 48.6247 45.8799 48.6247 43.6247V31.3747Z" fill="#777E91"/>
<path d="M17.3082 76.1509C16.5033 76.1509 15.7538 76.0201 15.0596 75.7585C14.3754 75.4869 13.7768 75.1096 13.2637 74.6267C12.7606 74.1337 12.3683 73.5552 12.0866 72.8912C11.8049 72.2272 11.664 71.5028 11.664 70.7181C11.664 69.9333 11.8049 69.2089 12.0866 68.5449C12.3683 67.8809 12.7657 67.3074 13.2788 66.8245C13.7919 66.3315 14.3905 65.9542 15.0746 65.6927C15.7588 65.421 16.5083 65.2852 17.3232 65.2852C18.1885 65.2852 18.9783 65.4361 19.6926 65.7379C20.4069 66.0297 21.0105 66.4673 21.5035 67.0509L20.2359 68.2431C19.8535 67.8306 19.426 67.5237 18.9531 67.3225C18.4802 67.1112 17.9671 67.0056 17.4138 67.0056C16.8604 67.0056 16.3524 67.0961 15.8896 67.2772C15.4368 67.4583 15.0394 67.7149 14.6974 68.0469C14.3654 68.3789 14.1038 68.7713 13.9126 69.224C13.7315 69.6768 13.641 70.1748 13.641 70.7181C13.641 71.2613 13.7315 71.7594 13.9126 72.2121C14.1038 72.6648 14.3654 73.0572 14.6974 73.3892C15.0394 73.7212 15.4368 73.9778 15.8896 74.1589C16.3524 74.34 16.8604 74.4305 17.4138 74.4305C17.9671 74.4305 18.4802 74.3299 18.9531 74.1287C19.426 73.9174 19.8535 73.6005 20.2359 73.1779L21.5035 74.3852C21.0105 74.9587 20.4069 75.3963 19.6926 75.6982C18.9783 76 18.1834 76.1509 17.3082 76.1509ZM28.0936 76V74.3701L27.9879 74.023V71.1708C27.9879 70.6174 27.8219 70.1899 27.4899 69.888C27.1579 69.5761 26.6549 69.4202 25.9808 69.4202C25.5281 69.4202 25.0804 69.4906 24.6377 69.6315C24.2051 69.7723 23.8378 69.9685 23.536 70.22L22.7965 68.8467C23.2292 68.5147 23.7423 68.2682 24.3359 68.1073C24.9395 67.9362 25.5633 67.8507 26.2072 67.8507C27.3742 67.8507 28.2747 68.1324 28.9085 68.6958C29.5524 69.2492 29.8744 70.1094 29.8744 71.2764V76H28.0936ZM25.5582 76.1056C24.9546 76.1056 24.4264 76.005 23.9737 75.8038C23.5209 75.5925 23.1688 75.3058 22.9173 74.9436C22.6758 74.5714 22.5551 74.1538 22.5551 73.691C22.5551 73.2383 22.6607 72.8308 22.872 72.4686C23.0933 72.1065 23.4505 71.8197 23.9435 71.6084C24.4365 71.3972 25.0904 71.2915 25.9053 71.2915H28.2445V72.5441H26.0412C25.3973 72.5441 24.9647 72.6497 24.7433 72.861C24.522 73.0622 24.4113 73.3138 24.4113 73.6156C24.4113 73.9576 24.5471 74.2293 24.8188 74.4305C25.0904 74.6317 25.4677 74.7323 25.9506 74.7323C26.4134 74.7323 26.8259 74.6267 27.1881 74.4154C27.5604 74.2041 27.827 73.8923 27.9879 73.4798L28.3049 74.6116C28.1238 75.0845 27.7968 75.4517 27.3239 75.7133C26.8611 75.9748 26.2726 76.1056 25.5582 76.1056ZM42.4668 67.8507C43.1107 67.8507 43.6792 67.9765 44.1722 68.228C44.6752 68.4795 45.0676 68.8669 45.3493 69.39C45.631 69.9031 45.7718 70.5671 45.7718 71.3821V76H43.8854V71.6235C43.8854 70.9092 43.7295 70.376 43.4176 70.0239C43.1057 69.6717 42.658 69.4957 42.0745 69.4957C41.662 69.4957 41.2948 69.5862 40.9728 69.7673C40.6609 69.9484 40.4144 70.215 40.2333 70.5671C40.0623 70.9193 39.9768 71.367 39.9768 71.9103V76H38.0904V71.6235C38.0904 70.9092 37.9344 70.376 37.6225 70.0239C37.3107 69.6717 36.8629 69.4957 36.2794 69.4957C35.8669 69.4957 35.4997 69.5862 35.1778 69.7673C34.8659 69.9484 34.6194 70.215 34.4383 70.5671C34.2672 70.9193 34.1817 71.367 34.1817 71.9103V76H32.2953V67.9413H34.0912V70.0842L33.7743 69.4504C34.0459 68.9272 34.4383 68.5298 34.9514 68.2582C35.4746 67.9865 36.0681 67.8507 36.7322 67.8507C37.4867 67.8507 38.1407 68.0368 38.694 68.4091C39.2574 68.7813 39.6297 69.3447 39.8108 70.0993L39.0713 69.8428C39.3329 69.2391 39.7655 68.7562 40.3692 68.394C40.9728 68.0318 41.672 67.8507 42.4668 67.8507ZM51.9851 76.1056C51.0897 76.1056 50.3049 75.9296 49.6308 75.5774C48.9668 75.2153 48.4487 74.7223 48.0764 74.0985C47.7142 73.4747 47.5331 72.7654 47.5331 71.9706C47.5331 71.1658 47.7092 70.4565 48.0613 69.8428C48.4235 69.219 48.9165 68.731 49.5403 68.3789C50.1741 68.0268 50.8935 67.8507 51.6983 67.8507C52.4831 67.8507 53.1823 68.0217 53.796 68.3638C54.4097 68.7059 54.8927 69.1888 55.2448 69.8126C55.5969 70.4363 55.773 71.1708 55.773 72.0159C55.773 72.0964 55.768 72.1869 55.7579 72.2875C55.7579 72.3882 55.7529 72.4837 55.7428 72.5743H49.0272V71.3217H54.7468L54.0073 71.7141C54.0174 71.2513 53.9218 70.8438 53.7206 70.4917C53.5194 70.1396 53.2427 69.8629 52.8905 69.6617C52.5485 69.4604 52.1511 69.3598 51.6983 69.3598C51.2355 69.3598 50.8281 69.4604 50.4759 69.6617C50.1339 69.8629 49.8622 70.1446 49.661 70.5068C49.4699 70.8589 49.3743 71.2764 49.3743 71.7594V72.0612C49.3743 72.5441 49.485 72.9717 49.7063 73.3439C49.9276 73.7162 50.2395 74.0029 50.642 74.2041C51.0444 74.4054 51.5072 74.506 52.0303 74.506C52.4831 74.506 52.8906 74.4355 53.2527 74.2947C53.6149 74.1538 53.9369 73.9325 54.2186 73.6307L55.2297 74.7927C54.8675 75.2153 54.4097 75.5422 53.8564 75.7736C53.3131 75.995 52.6893 76.1056 51.9851 76.1056ZM57.585 76V67.9413H59.3809V70.1597L59.1696 69.5108C59.411 68.9675 59.7883 68.555 60.3014 68.2733C60.8246 67.9916 61.4735 67.8507 62.2482 67.8507V69.6466C62.1677 69.6265 62.0923 69.6164 62.0218 69.6164C61.9514 69.6063 61.881 69.6013 61.8106 69.6013C61.0962 69.6013 60.5278 69.8126 60.1052 70.2351C59.6827 70.6476 59.4714 71.2664 59.4714 72.0914V76H57.585ZM68.2387 76V74.3701L68.1331 74.023V71.1708C68.1331 70.6174 67.9671 70.1899 67.6351 69.888C67.3031 69.5761 66.8 69.4202 66.126 69.4202C65.6732 69.4202 65.2255 69.4906 64.7828 69.6315C64.3502 69.7723 63.983 69.9685 63.6812 70.22L62.9417 68.8467C63.3743 68.5147 63.8874 68.2682 64.481 68.1073C65.0847 67.9362 65.7084 67.8507 66.3523 67.8507C67.5194 67.8507 68.4198 68.1324 69.0537 68.6958C69.6976 69.2492 70.0195 70.1094 70.0195 71.2764V76H68.2387ZM65.7034 76.1056C65.0997 76.1056 64.5716 76.005 64.1188 75.8038C63.6661 75.5925 63.3139 75.3058 63.0624 74.9436C62.821 74.5714 62.7002 74.1538 62.7002 73.691C62.7002 73.2383 62.8059 72.8308 63.0171 72.4686C63.2385 72.1065 63.5956 71.8197 64.0886 71.6084C64.5816 71.3972 65.2356 71.2915 66.0505 71.2915H68.3896V72.5441H66.1863C65.5424 72.5441 65.1098 72.6497 64.8885 72.861C64.6671 73.0622 64.5565 73.3138 64.5565 73.6156C64.5565 73.9576 64.6923 74.2293 64.9639 74.4305C65.2356 74.6317 65.6128 74.7323 66.0958 74.7323C66.5586 74.7323 66.9711 74.6267 67.3333 74.4154C67.7055 74.2041 67.9721 73.8923 68.1331 73.4798L68.45 74.6116C68.2689 75.0845 67.9419 75.4517 67.4691 75.7133C67.0063 75.9748 66.4177 76.1056 65.7034 76.1056Z" fill="#777E91"/>
</svg>
