<svg width="87" height="87" viewBox="0 0 87 87" fill="none" xmlns="http://www.w3.org/2000/svg">
<rect width="87" height="87" rx="6" fill="#25D366"/>
<path fill-rule="evenodd" clip-rule="evenodd" d="M22.083 31.3747C22.083 26.8643 25.7393 23.208 30.2497 23.208H44.5413C49.0516 23.208 52.708 26.8643 52.708 31.3747V31.5211L59.2454 27.7631C60.8785 26.8242 62.9163 28.0032 62.9163 29.8872V45.1535C62.9163 46.9328 61.0795 48.1188 59.4578 47.3862L52.6784 44.3239C52.3238 48.5069 48.8162 51.7913 44.5413 51.7913H30.2497C25.7393 51.7913 22.083 48.1349 22.083 43.6247V31.3747ZM52.708 39.8566L58.833 42.6234V32.7101L52.708 36.231V39.8566ZM48.6247 31.3747C48.6247 29.1195 46.7966 27.2913 44.5413 27.2913H30.2497C27.9945 27.2913 26.1663 29.1195 26.1663 31.3747V43.6247C26.1663 45.8799 27.9945 47.708 30.2497 47.708H44.5413C46.7966 47.708 48.6247 45.8799 48.6247 43.6247V31.3747Z" fill="black"/>
<path d="M21.3082 76.1509C20.5033 76.1509 19.7538 76.0201 19.0596 75.7585C18.3754 75.4869 17.7768 75.1096 17.2637 74.6267C16.7606 74.1337 16.3683 73.5552 16.0866 72.8912C15.8049 72.2272 15.664 71.5028 15.664 70.7181C15.664 69.9333 15.8049 69.2089 16.0866 68.5449C16.3683 67.8809 16.7657 67.3074 17.2788 66.8245C17.7919 66.3315 18.3905 65.9542 19.0746 65.6927C19.7588 65.421 20.5083 65.2852 21.3232 65.2852C22.1885 65.2852 22.9783 65.4361 23.6926 65.7379C24.4069 66.0297 25.0105 66.4673 25.5035 67.0509L24.2359 68.2431C23.8535 67.8306 23.426 67.5237 22.9531 67.3225C22.4802 67.1112 21.9671 67.0056 21.4138 67.0056C20.8604 67.0056 20.3524 67.0961 19.8896 67.2772C19.4368 67.4583 19.0394 67.7149 18.6974 68.0469C18.3654 68.3789 18.1038 68.7713 17.9126 69.224C17.7315 69.6768 17.641 70.1748 17.641 70.7181C17.641 71.2613 17.7315 71.7594 17.9126 72.2121C18.1038 72.6648 18.3654 73.0572 18.6974 73.3892C19.0394 73.7212 19.4368 73.9778 19.8896 74.1589C20.3524 74.34 20.8604 74.4305 21.4138 74.4305C21.9671 74.4305 22.4802 74.3299 22.9531 74.1287C23.426 73.9174 23.8535 73.6005 24.2359 73.1779L25.5035 74.3852C25.0105 74.9587 24.4069 75.3963 23.6926 75.6982C22.9783 76 22.1834 76.1509 21.3082 76.1509ZM32.0936 76V74.3701L31.9879 74.023V71.1708C31.9879 70.6174 31.8219 70.1899 31.4899 69.888C31.1579 69.5761 30.6549 69.4202 29.9808 69.4202C29.5281 69.4202 29.0804 69.4906 28.6377 69.6315C28.2051 69.7723 27.8378 69.9685 27.536 70.22L26.7965 68.8467C27.2292 68.5147 27.7423 68.2682 28.3359 68.1073C28.9395 67.9362 29.5633 67.8507 30.2072 67.8507C31.3742 67.8507 32.2747 68.1324 32.9085 68.6958C33.5524 69.2492 33.8744 70.1094 33.8744 71.2764V76H32.0936ZM29.5582 76.1056C28.9546 76.1056 28.4264 76.005 27.9737 75.8038C27.5209 75.5925 27.1688 75.3058 26.9173 74.9436C26.6758 74.5714 26.5551 74.1538 26.5551 73.691C26.5551 73.2383 26.6607 72.8308 26.872 72.4686C27.0933 72.1065 27.4505 71.8197 27.9435 71.6084C28.4365 71.3972 29.0904 71.2915 29.9053 71.2915H32.2445V72.5441H30.0412C29.3973 72.5441 28.9647 72.6497 28.7433 72.861C28.522 73.0622 28.4113 73.3138 28.4113 73.6156C28.4113 73.9576 28.5471 74.2293 28.8188 74.4305C29.0904 74.6317 29.4677 74.7323 29.9506 74.7323C30.4134 74.7323 30.8259 74.6267 31.1881 74.4154C31.5604 74.2041 31.827 73.8923 31.9879 73.4798L32.3049 74.6116C32.1238 75.0845 31.7968 75.4517 31.3239 75.7133C30.8611 75.9748 30.2726 76.1056 29.5582 76.1056ZM46.4668 67.8507C47.1107 67.8507 47.6792 67.9765 48.1722 68.228C48.6752 68.4795 49.0676 68.8669 49.3493 69.39C49.631 69.9031 49.7718 70.5671 49.7718 71.3821V76H47.8854V71.6235C47.8854 70.9092 47.7295 70.376 47.4176 70.0239C47.1057 69.6717 46.658 69.4957 46.0745 69.4957C45.662 69.4957 45.2948 69.5862 44.9728 69.7673C44.6609 69.9484 44.4144 70.215 44.2333 70.5671C44.0623 70.9193 43.9768 71.367 43.9768 71.9103V76H42.0904V71.6235C42.0904 70.9092 41.9344 70.376 41.6225 70.0239C41.3107 69.6717 40.8629 69.4957 40.2794 69.4957C39.8669 69.4957 39.4997 69.5862 39.1778 69.7673C38.8659 69.9484 38.6194 70.215 38.4383 70.5671C38.2672 70.9193 38.1817 71.367 38.1817 71.9103V76H36.2953V67.9413H38.0912V70.0842L37.7743 69.4504C38.0459 68.9272 38.4383 68.5298 38.9514 68.2582C39.4746 67.9865 40.0681 67.8507 40.7322 67.8507C41.4867 67.8507 42.1407 68.0368 42.694 68.4091C43.2574 68.7813 43.6297 69.3447 43.8108 70.0993L43.0713 69.8428C43.3329 69.2391 43.7655 68.7562 44.3692 68.394C44.9728 68.0318 45.672 67.8507 46.4668 67.8507ZM55.9851 76.1056C55.0897 76.1056 54.3049 75.9296 53.6308 75.5774C52.9668 75.2153 52.4487 74.7223 52.0764 74.0985C51.7142 73.4747 51.5331 72.7654 51.5331 71.9706C51.5331 71.1658 51.7092 70.4565 52.0613 69.8428C52.4235 69.219 52.9165 68.731 53.5403 68.3789C54.1741 68.0268 54.8935 67.8507 55.6983 67.8507C56.4831 67.8507 57.1823 68.0217 57.796 68.3638C58.4097 68.7059 58.8927 69.1888 59.2448 69.8126C59.5969 70.4363 59.773 71.1708 59.773 72.0159C59.773 72.0964 59.768 72.1869 59.7579 72.2875C59.7579 72.3882 59.7529 72.4837 59.7428 72.5743H53.0272V71.3217H58.7468L58.0073 71.7141C58.0174 71.2513 57.9218 70.8438 57.7206 70.4917C57.5194 70.1396 57.2427 69.8629 56.8905 69.6617C56.5485 69.4604 56.1511 69.3598 55.6983 69.3598C55.2355 69.3598 54.8281 69.4604 54.4759 69.6617C54.1339 69.8629 53.8622 70.1446 53.661 70.5068C53.4699 70.8589 53.3743 71.2764 53.3743 71.7594V72.0612C53.3743 72.5441 53.485 72.9717 53.7063 73.3439C53.9276 73.7162 54.2395 74.0029 54.642 74.2041C55.0444 74.4054 55.5072 74.506 56.0303 74.506C56.4831 74.506 56.8906 74.4355 57.2527 74.2947C57.6149 74.1538 57.9369 73.9325 58.2186 73.6307L59.2297 74.7927C58.8675 75.2153 58.4097 75.5422 57.8564 75.7736C57.3131 75.995 56.6893 76.1056 55.9851 76.1056ZM61.585 76V67.9413H63.3809V70.1597L63.1696 69.5108C63.411 68.9675 63.7883 68.555 64.3014 68.2733C64.8246 67.9916 65.4735 67.8507 66.2482 67.8507V69.6466C66.1677 69.6265 66.0923 69.6164 66.0218 69.6164C65.9514 69.6063 65.881 69.6013 65.8106 69.6013C65.0962 69.6013 64.5278 69.8126 64.1052 70.2351C63.6827 70.6476 63.4714 71.2664 63.4714 72.0914V76H61.585ZM72.2387 76V74.3701L72.1331 74.023V71.1708C72.1331 70.6174 71.9671 70.1899 71.6351 69.888C71.3031 69.5761 70.8 69.4202 70.126 69.4202C69.6732 69.4202 69.2255 69.4906 68.7828 69.6315C68.3502 69.7723 67.983 69.9685 67.6812 70.22L66.9417 68.8467C67.3743 68.5147 67.8874 68.2682 68.481 68.1073C69.0847 67.9362 69.7084 67.8507 70.3523 67.8507C71.5194 67.8507 72.4198 68.1324 73.0537 68.6958C73.6976 69.2492 74.0195 70.1094 74.0195 71.2764V76H72.2387ZM69.7034 76.1056C69.0997 76.1056 68.5716 76.005 68.1188 75.8038C67.6661 75.5925 67.3139 75.3058 67.0624 74.9436C66.821 74.5714 66.7002 74.1538 66.7002 73.691C66.7002 73.2383 66.8059 72.8308 67.0171 72.4686C67.2385 72.1065 67.5956 71.8197 68.0886 71.6084C68.5816 71.3972 69.2356 71.2915 70.0505 71.2915H72.3896V72.5441H70.1863C69.5424 72.5441 69.1098 72.6497 68.8885 72.861C68.6671 73.0622 68.5565 73.3138 68.5565 73.6156C68.5565 73.9576 68.6923 74.2293 68.9639 74.4305C69.2356 74.6317 69.6128 74.7323 70.0958 74.7323C70.5586 74.7323 70.9711 74.6267 71.3333 74.4154C71.7055 74.2041 71.9721 73.8923 72.1331 73.4798L72.45 74.6116C72.2689 75.0845 71.9419 75.4517 71.4691 75.7133C71.0063 75.9748 70.4177 76.1056 69.7034 76.1056Z" fill="black"/>
</svg>
