<svg width="87" height="87" viewBox="0 0 87 87" fill="none" xmlns="http://www.w3.org/2000/svg">
<rect width="87" height="87" rx="6" fill="#25D366"/>
<path d="M37.1538 31.2941H51.4615M37.1538 38.5882H46.0962M35.3654 45.8824V55L44.3077 45.8824H58.6154V24H30V45.8824H35.3654Z" stroke="black" stroke-width="3.82137" stroke-linecap="round" stroke-linejoin="round"/>
<path d="M31.3082 76.1509C30.5033 76.1509 29.7538 76.0201 29.0596 75.7585C28.3754 75.4869 27.7768 75.1096 27.2637 74.6267C26.7606 74.1337 26.3683 73.5552 26.0866 72.8912C25.8049 72.2272 25.664 71.5028 25.664 70.7181C25.664 69.9333 25.8049 69.2089 26.0866 68.5449C26.3683 67.8809 26.7657 67.3074 27.2788 66.8245C27.7919 66.3315 28.3905 65.9542 29.0746 65.6927C29.7588 65.421 30.5083 65.2852 31.3232 65.2852C32.1885 65.2852 32.9783 65.4361 33.6926 65.7379C34.4069 66.0297 35.0105 66.4673 35.5035 67.0509L34.2359 68.2431C33.8535 67.8306 33.426 67.5237 32.9531 67.3225C32.4802 67.1112 31.9671 67.0056 31.4138 67.0056C30.8604 67.0056 30.3524 67.0961 29.8896 67.2772C29.4368 67.4583 29.0394 67.7149 28.6974 68.0469C28.3654 68.3789 28.1038 68.7713 27.9126 69.224C27.7315 69.6768 27.641 70.1748 27.641 70.7181C27.641 71.2613 27.7315 71.7594 27.9126 72.2121C28.1038 72.6648 28.3654 73.0572 28.6974 73.3892C29.0394 73.7212 29.4368 73.9778 29.8896 74.1589C30.3524 74.34 30.8604 74.4305 31.4138 74.4305C31.9671 74.4305 32.4802 74.3299 32.9531 74.1287C33.426 73.9174 33.8535 73.6005 34.2359 73.1779L35.5035 74.3852C35.0105 74.9587 34.4069 75.3963 33.6926 75.6982C32.9783 76 32.1834 76.1509 31.3082 76.1509ZM41.7749 67.8507C42.4188 67.8507 42.9923 67.9765 43.4953 68.228C44.0084 68.4795 44.4108 68.8669 44.7026 69.39C44.9944 69.9031 45.1403 70.5671 45.1403 71.3821V76H43.2538V71.6235C43.2538 70.9092 43.0828 70.376 42.7407 70.0239C42.4087 69.6717 41.9409 69.4957 41.3372 69.4957C40.8946 69.4957 40.5022 69.5862 40.1601 69.7673C39.8181 69.9484 39.5514 70.22 39.3603 70.5822C39.1792 70.9344 39.0886 71.3821 39.0886 71.9254V76H37.2022V64.8023H39.0886V70.1144L38.6812 69.4504C38.9629 68.9373 39.3704 68.5449 39.9036 68.2733C40.4469 67.9916 41.0706 67.8507 41.7749 67.8507ZM52.4983 76V74.3701L52.3927 74.023V71.1708C52.3927 70.6174 52.2267 70.1899 51.8947 69.888C51.5627 69.5761 51.0596 69.4202 50.3855 69.4202C49.9328 69.4202 49.4851 69.4906 49.0424 69.6315C48.6098 69.7723 48.2426 69.9685 47.9407 70.22L47.2013 68.8467C47.6339 68.5147 48.147 68.2682 48.7406 68.1073C49.3442 67.9362 49.968 67.8507 50.6119 67.8507C51.779 67.8507 52.6794 68.1324 53.3132 68.6958C53.9571 69.2492 54.2791 70.1094 54.2791 71.2764V76H52.4983ZM49.963 76.1056C49.3593 76.1056 48.8311 76.005 48.3784 75.8038C47.9257 75.5925 47.5735 75.3058 47.322 74.9436C47.0805 74.5714 46.9598 74.1538 46.9598 73.691C46.9598 73.2383 47.0655 72.8308 47.2767 72.4686C47.4981 72.1065 47.8552 71.8197 48.3482 71.6084C48.8412 71.3972 49.4951 71.2915 50.3101 71.2915H52.6492V72.5441H50.4459C49.802 72.5441 49.3694 72.6497 49.148 72.861C48.9267 73.0622 48.816 73.3138 48.816 73.6156C48.816 73.9576 48.9519 74.2293 49.2235 74.4305C49.4951 74.6317 49.8724 74.7323 50.3553 74.7323C50.8181 74.7323 51.2306 74.6267 51.5928 74.4154C51.9651 74.2041 52.2317 73.8923 52.3927 73.4798L52.7096 74.6116C52.5285 75.0845 52.2015 75.4517 51.7287 75.7133C51.2659 75.9748 50.6773 76.1056 49.963 76.1056ZM59.7334 76.1056C58.848 76.1056 58.1639 75.8793 57.681 75.4265C57.1981 74.9637 56.9566 74.2846 56.9566 73.3892V66.1605H58.843V73.3439C58.843 73.7262 58.9386 74.023 59.1297 74.2343C59.331 74.4456 59.6076 74.5512 59.9598 74.5512C60.3823 74.5512 60.7345 74.4406 61.0162 74.2192L61.5444 75.5624C61.323 75.7434 61.0514 75.8793 60.7294 75.9698C60.4075 76.0604 60.0755 76.1056 59.7334 76.1056ZM55.6286 69.5108V68.0016H61.0011V69.5108H55.6286Z" fill="black"/>
</svg>
