<svg width="87" height="87" viewBox="0 0 87 87" fill="none" xmlns="http://www.w3.org/2000/svg">
<rect width="87" height="87" rx="6" fill="#2A2A2A"/>
<path d="M20.4186 72V61.4361H22.3804V70.34H27.9039V72H20.4186ZM32.9858 72.1056C32.0904 72.1056 31.3057 71.9296 30.6316 71.5774C29.9676 71.2153 29.4495 70.7223 29.0772 70.0985C28.715 69.4747 28.5339 68.7654 28.5339 67.9706C28.5339 67.1658 28.71 66.4565 29.0621 65.8428C29.4243 65.219 29.9173 64.731 30.5411 64.3789C31.1749 64.0268 31.8942 63.8507 32.6991 63.8507C33.4839 63.8507 34.1831 64.0217 34.7968 64.3638C35.4105 64.7059 35.8934 65.1888 36.2456 65.8126C36.5977 66.4363 36.7737 67.1708 36.7737 68.0159C36.7737 68.0964 36.7687 68.1869 36.7587 68.2875C36.7587 68.3882 36.7536 68.4837 36.7436 68.5743H30.0279V67.3217H35.7475L35.0081 67.7141C35.0181 67.2513 34.9226 66.8438 34.7213 66.4917C34.5201 66.1396 34.2434 65.8629 33.8913 65.6617C33.5492 65.4604 33.1518 65.3598 32.6991 65.3598C32.2363 65.3598 31.8288 65.4604 31.4767 65.6617C31.1346 65.8629 30.863 66.1446 30.6618 66.5068C30.4706 66.8589 30.375 67.2764 30.375 67.7594V68.0612C30.375 68.5441 30.4857 68.9717 30.7071 69.3439C30.9284 69.7162 31.2403 70.0029 31.6427 70.2041C32.0451 70.4054 32.5079 70.506 33.0311 70.506C33.4839 70.506 33.8913 70.4355 34.2535 70.2947C34.6157 70.1538 34.9376 69.9325 35.2193 69.6307L36.2305 70.7927C35.8683 71.2153 35.4105 71.5422 34.8572 71.7736C34.3139 71.995 33.6901 72.1056 32.9858 72.1056ZM43.3297 72V70.3701L43.2241 70.023V67.1708C43.2241 66.6174 43.0581 66.1899 42.7261 65.888C42.3941 65.5761 41.891 65.4202 41.217 65.4202C40.7642 65.4202 40.3165 65.4906 39.8738 65.6315C39.4412 65.7723 39.074 65.9685 38.7722 66.22L38.0327 64.8467C38.4653 64.5147 38.9784 64.2682 39.572 64.1073C40.1757 63.9362 40.7994 63.8507 41.4433 63.8507C42.6104 63.8507 43.5108 64.1324 44.1447 64.6958C44.7886 65.2492 45.1105 66.1094 45.1105 67.2764V72H43.3297ZM40.7944 72.1056C40.1907 72.1056 39.6626 72.005 39.2098 71.8038C38.7571 71.5925 38.4049 71.3058 38.1534 70.9436C37.912 70.5714 37.7912 70.1538 37.7912 69.691C37.7912 69.2383 37.8969 68.8308 38.1081 68.4686C38.3295 68.1065 38.6866 67.8197 39.1796 67.6084C39.6726 67.3972 40.3266 67.2915 41.1415 67.2915H43.4806V68.5441H41.2773C40.6334 68.5441 40.2008 68.6497 39.9795 68.861C39.7581 69.0622 39.6475 69.3138 39.6475 69.6156C39.6475 69.9576 39.7833 70.2293 40.0549 70.4305C40.3266 70.6317 40.7038 70.7323 41.1868 70.7323C41.6496 70.7323 42.0621 70.6267 42.4243 70.4154C42.7965 70.2041 43.0631 69.8923 43.2241 69.4798L43.541 70.6116C43.3599 71.0845 43.0329 71.4517 42.5601 71.7133C42.0973 71.9748 41.5087 72.1056 40.7944 72.1056ZM49.5271 72L46.0712 63.9413H48.033L51.006 71.0492H50.0402L53.1188 63.9413H54.9297L51.4738 72H49.5271ZM59.6756 72.1056C58.7802 72.1056 57.9954 71.9296 57.3213 71.5774C56.6573 71.2153 56.1392 70.7223 55.7669 70.0985C55.4048 69.4747 55.2237 68.7654 55.2237 67.9706C55.2237 67.1658 55.3997 66.4565 55.7519 65.8428C56.114 65.219 56.607 64.731 57.2308 64.3789C57.8646 64.0268 58.584 63.8507 59.3889 63.8507C60.1736 63.8507 60.8728 64.0217 61.4865 64.3638C62.1003 64.7059 62.5832 65.1888 62.9353 65.8126C63.2874 66.4363 63.4635 67.1708 63.4635 68.0159C63.4635 68.0964 63.4585 68.1869 63.4484 68.2875C63.4484 68.3882 63.4434 68.4837 63.4333 68.5743H56.7177V67.3217H62.4373L61.6978 67.7141C61.7079 67.2513 61.6123 66.8438 61.4111 66.4917C61.2099 66.1396 60.9332 65.8629 60.5811 65.6617C60.239 65.4604 59.8416 65.3598 59.3889 65.3598C58.9261 65.3598 58.5186 65.4604 58.1665 65.6617C57.8244 65.8629 57.5527 66.1446 57.3515 66.5068C57.1604 66.8589 57.0648 67.2764 57.0648 67.7594V68.0612C57.0648 68.5441 57.1755 68.9717 57.3968 69.3439C57.6181 69.7162 57.93 70.0029 58.3325 70.2041C58.7349 70.4054 59.1977 70.506 59.7209 70.506C60.1736 70.506 60.5811 70.4355 60.9433 70.2947C61.3054 70.1538 61.6274 69.9325 61.9091 69.6307L62.9202 70.7927C62.558 71.2153 62.1003 71.5422 61.5469 71.7736C61.0036 71.995 60.3798 72.1056 59.6756 72.1056Z" fill="#FF0000"/>
<g clip-path="url(#clip0_485_184)">
<path d="M39 38H55.6667" stroke="#FF0000" stroke-width="4" stroke-linecap="round"/>
<path d="M50.666 31.334L54.9757 35.6437C56.2773 36.9453 56.2773 39.056 54.9757 40.3577L50.666 44.6673" stroke="#FF0000" stroke-width="4" stroke-linecap="round"/>
<path d="M50.666 24.666H33.9993C32.1584 24.666 30.666 26.1584 30.666 27.9993V47.9993C30.666 49.8403 32.1584 51.3327 33.9993 51.3327H50.666" stroke="#FF0000" stroke-width="4" stroke-linecap="round"/>
</g>
<defs>
<clipPath id="clip0_485_184">
<rect width="40" height="40" fill="white" transform="translate(24 18)"/>
</clipPath>
</defs>
</svg>
