<svg width="87" height="87" viewBox="0 0 87 87" fill="none" xmlns="http://www.w3.org/2000/svg">
<rect width="87" height="87" rx="6" fill="#2A2A2A"/>
<path d="M49.375 23.5C49.375 20.3244 46.7447 17.75 43.5 17.75C40.2553 17.75 37.625 20.3244 37.625 23.5V33.0833C37.625 36.259 40.2553 38.8333 43.5 38.8333C46.7447 38.8333 49.375 36.259 49.375 33.0833V23.5Z" stroke="#777E91" stroke-width="4.41667" stroke-linecap="round"/>
<path d="M43.5 46.5V52.25" stroke="#777E91" stroke-width="4.41667" stroke-linecap="round"/>
<path d="M35.667 52.25H51.3337" stroke="#777E91" stroke-width="4.41667" stroke-linecap="round"/>
<path d="M57.2087 33.084C57.2087 40.4938 51.0712 46.5007 43.5003 46.5007C35.9294 46.5007 29.792 40.4938 29.792 33.084" stroke="#777E91" stroke-width="4.41667" stroke-linecap="round"/>
<path d="M34.409 66.8507C35.0529 66.8507 35.6213 66.9765 36.1143 67.228C36.6174 67.4795 37.0097 67.8669 37.2914 68.39C37.5731 68.9031 37.714 69.5671 37.714 70.3821V75H35.8276V70.6235C35.8276 69.9092 35.6716 69.376 35.3598 69.0239C35.0479 68.6717 34.6002 68.4957 34.0166 68.4957C33.6041 68.4957 33.2369 68.5862 32.915 68.7673C32.6031 68.9484 32.3566 69.215 32.1755 69.5671C32.0045 69.9193 31.9189 70.367 31.9189 70.9103V75H30.0325V70.6235C30.0325 69.9092 29.8766 69.376 29.5647 69.0239C29.2528 68.6717 28.8051 68.4957 28.2216 68.4957C27.8091 68.4957 27.4419 68.5862 27.1199 68.7673C26.808 68.9484 26.5615 69.215 26.3804 69.5671C26.2094 69.9193 26.1239 70.367 26.1239 70.9103V75H24.2375V66.9413H26.0333V69.0842L25.7164 68.4504C25.9881 67.9272 26.3804 67.5298 26.8935 67.2582C27.4167 66.9865 28.0103 66.8507 28.6743 66.8507C29.4289 66.8507 30.0828 67.0368 30.6362 67.4091C31.1996 67.7813 31.5718 68.3447 31.7529 69.0993L31.0135 68.8428C31.275 68.2391 31.7077 67.7562 32.3113 67.394C32.915 67.0318 33.6142 66.8507 34.409 66.8507ZM43.5352 75.1056C42.8511 75.1056 42.2474 74.9799 41.7243 74.7284C41.2011 74.4668 40.7936 74.0744 40.5019 73.5512C40.2101 73.018 40.0642 72.349 40.0642 71.5441V66.9413H41.9506V71.2875C41.9506 72.0119 42.1116 72.5552 42.4336 72.9174C42.7656 73.2695 43.2334 73.4456 43.837 73.4456C44.2797 73.4456 44.662 73.3551 44.984 73.174C45.316 72.9929 45.5725 72.7212 45.7536 72.359C45.9448 71.9968 46.0404 71.5491 46.0404 71.0159V66.9413H47.9268V75H46.1309V72.8269L46.4478 73.4909C46.1762 74.014 45.7788 74.4165 45.2556 74.6982C44.7325 74.9698 44.159 75.1056 43.5352 75.1056ZM53.43 75.1056C52.5447 75.1056 51.8605 74.8793 51.3776 74.4265C50.8947 73.9637 50.6532 73.2846 50.6532 72.3892V65.1605H52.5396V72.3439C52.5396 72.7262 52.6352 73.023 52.8264 73.2343C53.0276 73.4456 53.3043 73.5512 53.6564 73.5512C54.0789 73.5512 54.4311 73.4406 54.7128 73.2192L55.241 74.5624C55.0196 74.7434 54.748 74.8793 54.426 74.9698C54.1041 75.0604 53.7721 75.1056 53.43 75.1056ZM49.3252 68.5108V67.0016H54.6977V68.5108H49.3252ZM60.3154 75.1056C59.42 75.1056 58.6353 74.9296 57.9612 74.5774C57.2972 74.2153 56.779 73.7223 56.4068 73.0985C56.0446 72.4747 55.8635 71.7654 55.8635 70.9706C55.8635 70.1658 56.0396 69.4565 56.3917 68.8428C56.7539 68.219 57.2469 67.731 57.8706 67.3789C58.5045 67.0268 59.2238 66.8507 60.0287 66.8507C60.8134 66.8507 61.5127 67.0217 62.1264 67.3638C62.7401 67.7059 63.223 68.1888 63.5751 68.8126C63.9273 69.4363 64.1033 70.1708 64.1033 71.0159C64.1033 71.0964 64.0983 71.1869 64.0882 71.2875C64.0882 71.3882 64.0832 71.4837 64.0731 71.5743H57.3575V70.3217H63.0771L62.3376 70.7141C62.3477 70.2513 62.2521 69.8438 62.0509 69.4917C61.8497 69.1396 61.573 68.8629 61.2209 68.6617C60.8788 68.4604 60.4814 68.3598 60.0287 68.3598C59.5659 68.3598 59.1584 68.4604 58.8063 68.6617C58.4642 68.8629 58.1926 69.1446 57.9914 69.5068C57.8002 69.8589 57.7046 70.2764 57.7046 70.7594V71.0612C57.7046 71.5441 57.8153 71.9717 58.0366 72.3439C58.258 72.7162 58.5699 73.0029 58.9723 73.2041C59.3747 73.4054 59.8375 73.506 60.3607 73.506C60.8134 73.506 61.2209 73.4355 61.5831 73.2947C61.9453 73.1538 62.2672 72.9325 62.5489 72.6307L63.56 73.7927C63.1979 74.2153 62.7401 74.5422 62.1867 74.7736C61.6435 74.995 61.0197 75.1056 60.3154 75.1056Z" fill="#777E91"/>
</svg>
