<svg width="87" height="87" viewBox="0 0 87 87" fill="none" xmlns="http://www.w3.org/2000/svg">
<rect width="87" height="87" rx="6" fill="#2A2A2A"/>
<path d="M13.4186 76V65.4361H15.0333L21.6584 73.5703H20.8586V65.4361H22.8054V76H21.1906L14.5655 67.8658H15.3654V76H13.4186ZM29.2428 76.1056C28.3474 76.1056 27.5627 75.9296 26.8886 75.5774C26.2246 75.2153 25.7065 74.7223 25.3342 74.0985C24.972 73.4747 24.7909 72.7654 24.7909 71.9706C24.7909 71.1658 24.967 70.4565 25.3191 69.8428C25.6813 69.219 26.1743 68.731 26.7981 68.3789C27.4319 68.0268 28.1512 67.8507 28.9561 67.8507C29.7409 67.8507 30.4401 68.0217 31.0538 68.3638C31.6675 68.7059 32.1504 69.1888 32.5026 69.8126C32.8547 70.4363 33.0308 71.1708 33.0308 72.0159C33.0308 72.0964 33.0257 72.1869 33.0157 72.2875C33.0157 72.3882 33.0106 72.4837 33.0006 72.5743H26.285V71.3217H32.0045L31.2651 71.7141C31.2751 71.2513 31.1796 70.8438 30.9783 70.4917C30.7771 70.1396 30.5004 69.8629 30.1483 69.6617C29.8063 69.4604 29.4088 69.3598 28.9561 69.3598C28.4933 69.3598 28.0858 69.4604 27.7337 69.6617C27.3916 69.8629 27.12 70.1446 26.9188 70.5068C26.7276 70.8589 26.6321 71.2764 26.6321 71.7594V72.0612C26.6321 72.5441 26.7427 72.9717 26.9641 73.3439C27.1854 73.7162 27.4973 74.0029 27.8997 74.2041C28.3022 74.4054 28.765 74.506 29.2881 74.506C29.7409 74.506 30.1483 74.4355 30.5105 74.2947C30.8727 74.1538 31.1946 73.9325 31.4764 73.6307L32.4875 74.7927C32.1253 75.2153 31.6675 75.5422 31.1142 75.7736C30.5709 75.995 29.9471 76.1056 29.2428 76.1056ZM37.8761 76.1056C36.9908 76.1056 36.3066 75.8793 35.8237 75.4265C35.3408 74.9637 35.0993 74.2846 35.0993 73.3892V66.1605H36.9857V73.3439C36.9857 73.7262 37.0813 74.023 37.2725 74.2343C37.4737 74.4456 37.7504 74.5512 38.1025 74.5512C38.525 74.5512 38.8772 74.4406 39.1589 74.2192L39.6871 75.5624C39.4657 75.7434 39.1941 75.8793 38.8721 75.9698C38.5502 76.0604 38.2182 76.1056 37.8761 76.1056ZM33.7713 69.5108V68.0016H39.1438V69.5108H33.7713ZM42.8723 76L39.9144 67.9413H41.6951L44.2305 75.0492H43.3854L46.0414 67.9413H47.626L50.2066 75.0492H49.3766L51.9874 67.9413H53.6625L50.6895 76H48.8786L46.5244 69.7069H47.0827L44.6832 76H42.8723ZM58.3604 76.1056C57.5354 76.1056 56.801 75.9296 56.1571 75.5774C55.5132 75.2153 55.0051 74.7223 54.6329 74.0985C54.2606 73.4747 54.0745 72.7654 54.0745 71.9706C54.0745 71.1658 54.2606 70.4565 54.6329 69.8428C55.0051 69.219 55.5132 68.731 56.1571 68.3789C56.801 68.0268 57.5354 67.8507 58.3604 67.8507C59.1954 67.8507 59.9349 68.0268 60.5788 68.3789C61.2328 68.731 61.7408 69.214 62.103 69.8277C62.4753 70.4414 62.6614 71.1557 62.6614 71.9706C62.6614 72.7654 62.4753 73.4747 62.103 74.0985C61.7408 74.7223 61.2328 75.2153 60.5788 75.5774C59.9349 75.9296 59.1954 76.1056 58.3604 76.1056ZM58.3604 74.4909C58.8232 74.4909 59.2357 74.3903 59.5979 74.189C59.9601 73.9878 60.2418 73.6961 60.443 73.3138C60.6543 72.9314 60.7599 72.4837 60.7599 71.9706C60.7599 71.4475 60.6543 70.9998 60.443 70.6275C60.2418 70.2452 59.9601 69.9534 59.5979 69.7522C59.2357 69.551 58.8282 69.4504 58.3755 69.4504C57.9127 69.4504 57.5002 69.551 57.138 69.7522C56.7859 69.9534 56.5042 70.2452 56.2929 70.6275C56.0816 70.9998 55.976 71.4475 55.976 71.9706C55.976 72.4837 56.0816 72.9314 56.2929 73.3138C56.5042 73.6961 56.7859 73.9878 57.138 74.189C57.5002 74.3903 57.9077 74.4909 58.3604 74.4909ZM64.4653 76V67.9413H66.2612V70.1597L66.0499 69.5108C66.2913 68.9675 66.6686 68.555 67.1817 68.2733C67.7049 67.9916 68.3538 67.8507 69.1285 67.8507V69.6466C69.048 69.6265 68.9726 69.6164 68.9021 69.6164C68.8317 69.6063 68.7613 69.6013 68.6908 69.6013C67.9765 69.6013 67.4081 69.8126 66.9855 70.2351C66.563 70.6476 66.3517 71.2664 66.3517 72.0914V76H64.4653ZM72.2681 74.2041L72.3133 71.8348L76.5238 67.9413H78.7875L75.2109 71.533L74.2148 72.363L72.2681 74.2041ZM70.7288 76V64.8023H72.6152V76H70.7288ZM76.8105 76L73.8677 72.363L75.06 70.8539L79.1044 76H76.8105Z" fill="#777E91"/>
<path d="M43.5002 41.0814C45.4781 41.0814 47.0814 39.4781 47.0814 37.5002C47.0814 35.5223 45.4781 33.9189 43.5002 33.9189C41.5223 33.9189 39.9189 35.5223 39.9189 37.5002C39.9189 39.4781 41.5223 41.0814 43.5002 41.0814Z" stroke="#777E91" stroke-width="3.58125" stroke-miterlimit="10"/>
<path d="M38.1377 46.4436C38.1377 45.0213 38.7027 43.6574 39.7083 42.6517C40.714 41.646 42.078 41.0811 43.5002 41.0811C44.9224 41.0811 46.2864 41.646 47.2921 42.6517C48.2977 43.6574 48.8627 45.0213 48.8627 46.4436" stroke="#777E91" stroke-width="3.58125" stroke-miterlimit="10"/>
<path d="M59.6066 24.975C61.5845 24.975 63.1879 23.3716 63.1879 21.3937C63.1879 19.4159 61.5845 17.8125 59.6066 17.8125C57.6288 17.8125 56.0254 19.4159 56.0254 21.3937C56.0254 23.3716 57.6288 24.975 59.6066 24.975Z" stroke="#777E91" stroke-width="3.58125" stroke-miterlimit="10"/>
<path d="M27.3937 57.1879C29.3716 57.1879 30.975 55.5845 30.975 53.6066C30.975 51.6288 29.3716 50.0254 27.3937 50.0254C25.4159 50.0254 23.8125 51.6288 23.8125 53.6066C23.8125 55.5845 25.4159 57.1879 27.3937 57.1879Z" stroke="#777E91" stroke-width="3.58125" stroke-miterlimit="10"/>
<path d="M58.7059 57.1871C61.1808 57.1871 63.1871 55.1808 63.1871 52.7059C63.1871 50.2309 61.1808 48.2246 58.7059 48.2246C56.2309 48.2246 54.2246 50.2309 54.2246 52.7059C54.2246 55.1808 56.2309 57.1871 58.7059 57.1871Z" stroke="#777E91" stroke-width="3.58125" stroke-miterlimit="10"/>
<path d="M28.2937 26.775C30.7687 26.775 32.775 24.7687 32.775 22.2937C32.775 19.8188 30.7687 17.8125 28.2937 17.8125C25.8188 17.8125 23.8125 19.8188 23.8125 22.2937C23.8125 24.7687 25.8188 26.775 28.2937 26.775Z" stroke="#777E91" stroke-width="3.58125" stroke-miterlimit="10"/>
<path d="M35.9062 45.0938L29.9062 51.0938" stroke="#777E91" stroke-width="3.58125" stroke-miterlimit="10"/>
<path d="M57.0938 23.9062L51.0938 29.9062" stroke="#777E91" stroke-width="3.58125" stroke-miterlimit="10"/>
<path d="M54.2442 37.4997C54.2693 39.9943 53.4271 42.4202 51.8615 44.3624C50.2959 46.3047 48.1041 47.6428 45.6611 48.1479C43.218 48.6529 40.6754 48.2936 38.4679 47.1313C36.2605 45.969 34.5254 44.0759 33.5594 41.7758C32.5934 39.4757 32.4564 36.9115 33.1719 34.5215C33.8873 32.1316 35.4109 30.0645 37.4819 28.6736C39.5529 27.2827 42.0428 26.6545 44.5258 26.8964C47.0087 27.1383 49.3305 28.2353 51.0942 29.9997C53.0935 31.9856 54.2259 34.6818 54.2442 37.4997Z" stroke="#777E91" stroke-width="3.58125" stroke-miterlimit="10"/>
<path d="M55.5375 49.5375L51.0938 45.0938" stroke="#777E91" stroke-width="3.58125" stroke-miterlimit="10"/>
<path d="M35.9066 29.9066L31.4629 25.4629" stroke="#777E91" stroke-width="3.58125" stroke-miterlimit="10"/>
</svg>
