<svg width="89" height="89" viewBox="0 0 89 89" fill="none" xmlns="http://www.w3.org/2000/svg">
<path d="M44.5 67.4453C31.8272 67.4453 21.5547 57.1728 21.5547 44.5C21.5547 31.8272 31.8272 21.5547 44.5 21.5547C57.1728 21.5547 67.4453 31.8272 67.4453 44.5C67.4453 57.1728 57.1728 67.4453 44.5 67.4453ZM35.3219 46.7945C35.3219 49.2287 36.2889 51.5633 38.01 53.2846C39.7313 55.0056 42.0659 55.9727 44.5 55.9727C46.9341 55.9727 49.2687 55.0056 50.99 53.2846C52.7111 51.5633 53.6781 49.2287 53.6781 46.7945H35.3219ZM35.3219 42.2055C36.2347 42.2055 37.1102 41.8428 37.7555 41.1973C38.401 40.552 38.7637 39.6765 38.7637 38.7637C38.7637 37.8509 38.401 36.9753 37.7555 36.3301C37.1102 35.6846 36.2347 35.3219 35.3219 35.3219C34.4091 35.3219 33.5335 35.6846 32.8883 36.3301C32.2428 36.9753 31.8801 37.8509 31.8801 38.7637C31.8801 39.6765 32.2428 40.552 32.8883 41.1973C33.5335 41.8428 34.4091 42.2055 35.3219 42.2055ZM53.6781 42.2055C54.5909 42.2055 55.4665 41.8428 56.1117 41.1973C56.7572 40.552 57.1199 39.6765 57.1199 38.7637C57.1199 37.8509 56.7572 36.9753 56.1117 36.3301C55.4665 35.6846 54.5909 35.3219 53.6781 35.3219C52.7653 35.3219 51.8898 35.6846 51.2445 36.3301C50.599 36.9753 50.2363 37.8509 50.2363 38.7637C50.2363 39.6765 50.599 40.552 51.2445 41.1973C51.8898 41.8428 52.7653 42.2055 53.6781 42.2055Z" fill="#777E91"/>
<rect x="2" width="87" height="87" rx="6" fill="#25D366"/>
<path d="M23.4186 75V64.4361H27.7649C28.7005 64.4361 29.5004 64.587 30.1644 64.8888C30.8385 65.1907 31.3566 65.6233 31.7188 66.1867C32.081 66.7501 32.2621 67.4191 32.2621 68.1938C32.2621 68.9685 32.081 69.6376 31.7188 70.201C31.3566 70.7543 30.8385 71.1819 30.1644 71.4837C29.5004 71.7755 28.7005 71.9214 27.7649 71.9214H24.5052L25.3804 71.031V75H23.4186ZM30.3304 75L27.6592 71.1668H29.7569L32.4432 75H30.3304ZM25.3804 71.2423L24.5052 70.3066H27.6743C28.5396 70.3066 29.1885 70.1205 29.6211 69.7482C30.0638 69.376 30.2851 68.8579 30.2851 68.1938C30.2851 67.5198 30.0638 67.0016 29.6211 66.6394C29.1885 66.2772 28.5396 66.0961 27.6743 66.0961H24.5052L25.3804 65.1303V71.2423ZM38.0638 75.1056C37.1684 75.1056 36.3837 74.9296 35.7096 74.5774C35.0456 74.2153 34.5274 73.7223 34.1552 73.0985C33.793 72.4747 33.6119 71.7654 33.6119 70.9706C33.6119 70.1658 33.788 69.4565 34.1401 68.8428C34.5023 68.219 34.9953 67.731 35.6191 67.3789C36.2529 67.0268 36.9722 66.8507 37.7771 66.8507C38.5618 66.8507 39.2611 67.0217 39.8748 67.3638C40.4885 67.7059 40.9714 68.1888 41.3236 68.8126C41.6757 69.4363 41.8517 70.1708 41.8517 71.0159C41.8517 71.0964 41.8467 71.1869 41.8367 71.2875C41.8367 71.3882 41.8316 71.4837 41.8216 71.5743H35.1059V70.3217H40.8255L40.0861 70.7141C40.0961 70.2513 40.0006 69.8438 39.7993 69.4917C39.5981 69.1396 39.3214 68.8629 38.9693 68.6617C38.6272 68.4604 38.2298 68.3598 37.7771 68.3598C37.3143 68.3598 36.9068 68.4604 36.5547 68.6617C36.2126 68.8629 35.941 69.1446 35.7398 69.5068C35.5486 69.8589 35.453 70.2764 35.453 70.7594V71.0612C35.453 71.5441 35.5637 71.9717 35.7851 72.3439C36.0064 72.7162 36.3183 73.0029 36.7207 73.2041C37.1231 73.4054 37.5859 73.506 38.1091 73.506C38.5618 73.506 38.9693 73.4355 39.3315 73.2947C39.6937 73.1538 40.0156 72.9325 40.2973 72.6307L41.3085 73.7927C40.9463 74.2153 40.4885 74.5422 39.9352 74.7736C39.3919 74.995 38.7681 75.1056 38.0638 75.1056ZM48.4077 75V73.3701L48.3021 73.023V70.1708C48.3021 69.6174 48.1361 69.1899 47.8041 68.888C47.4721 68.5761 46.969 68.4202 46.2949 68.4202C45.8422 68.4202 45.3945 68.4906 44.9518 68.6315C44.5192 68.7723 44.152 68.9685 43.8502 69.22L43.1107 67.8467C43.5433 67.5147 44.0564 67.2682 44.65 67.1073C45.2537 66.9362 45.8774 66.8507 46.5213 66.8507C47.6884 66.8507 48.5888 67.1324 49.2227 67.6958C49.8666 68.2492 50.1885 69.1094 50.1885 70.2764V75H48.4077ZM45.8724 75.1056C45.2687 75.1056 44.7405 75.005 44.2878 74.8038C43.8351 74.5925 43.4829 74.3058 43.2314 73.9436C42.99 73.5714 42.8692 73.1538 42.8692 72.691C42.8692 72.2383 42.9749 71.8308 43.1861 71.4686C43.4075 71.1065 43.7646 70.8197 44.2576 70.6084C44.7506 70.3972 45.4046 70.2915 46.2195 70.2915H48.5586V71.5441H46.3553C45.7114 71.5441 45.2788 71.6497 45.0575 71.861C44.8361 72.0622 44.7255 72.3138 44.7255 72.6156C44.7255 72.9576 44.8613 73.2293 45.1329 73.4305C45.4046 73.6317 45.7818 73.7323 46.2648 73.7323C46.7276 73.7323 47.1401 73.6267 47.5023 73.4154C47.8745 73.2041 48.1411 72.8923 48.3021 72.4798L48.619 73.6116C48.4379 74.0845 48.1109 74.4517 47.6381 74.7133C47.1753 74.9748 46.5867 75.1056 45.8724 75.1056ZM56.3216 75.1056C55.4765 75.1056 54.7219 74.9296 54.0579 74.5774C53.4039 74.2153 52.8908 73.7223 52.5186 73.0985C52.1463 72.4747 51.9602 71.7654 51.9602 70.9706C51.9602 70.1658 52.1463 69.4565 52.5186 68.8428C52.8908 68.219 53.4039 67.731 54.0579 67.3789C54.7219 67.0268 55.4765 66.8507 56.3216 66.8507C57.1063 66.8507 57.7955 67.0117 58.3891 67.3336C58.9927 67.6455 59.4505 68.1083 59.7624 68.722L58.3136 69.5671C58.0722 69.1848 57.7754 68.9031 57.4232 68.722C57.0812 68.5409 56.7089 68.4504 56.3065 68.4504C55.8437 68.4504 55.4262 68.551 55.0539 68.7522C54.6817 68.9534 54.3899 69.2452 54.1786 69.6275C53.9673 69.9998 53.8617 70.4475 53.8617 70.9706C53.8617 71.4938 53.9673 71.9465 54.1786 72.3288C54.3899 72.7011 54.6817 72.9878 55.0539 73.189C55.4262 73.3903 55.8437 73.4909 56.3065 73.4909C56.7089 73.4909 57.0812 73.4003 57.4232 73.2192C57.7754 73.0381 58.0722 72.7564 58.3136 72.3741L59.7624 73.2192C59.4505 73.8229 58.9927 74.2907 58.3891 74.6227C57.7955 74.9447 57.1063 75.1056 56.3216 75.1056ZM64.5296 75.1056C63.6442 75.1056 62.9601 74.8793 62.4772 74.4265C61.9942 73.9637 61.7528 73.2846 61.7528 72.3892V65.1605H63.6392V72.3439C63.6392 72.7262 63.7348 73.023 63.9259 73.2343C64.1271 73.4456 64.4038 73.5512 64.7559 73.5512C65.1785 73.5512 65.5306 73.4406 65.8123 73.2192L66.3405 74.5624C66.1192 74.7434 65.8475 74.8793 65.5256 74.9698C65.2036 75.0604 64.8716 75.1056 64.5296 75.1056ZM60.4247 68.5108V67.0016H65.7972V68.5108H60.4247Z" fill="black"/>
<path opacity="0.1" d="M61.375 38.5C61.375 47.8199 53.8199 55.375 44.5 55.375C35.1802 55.375 27.625 47.8199 27.625 38.5C27.625 29.1802 35.1802 21.625 44.5 21.625C53.8199 21.625 61.375 29.1802 61.375 38.5Z" fill="black"/>
<path d="M61.375 38.5C61.375 47.8199 53.8199 55.375 44.5 55.375C35.1802 55.375 27.625 47.8199 27.625 38.5C27.625 29.1802 35.1802 21.625 44.5 21.625C53.8199 21.625 61.375 29.1802 61.375 38.5Z" stroke="black" stroke-width="4.25"/>
<path d="M37 42.25C38.7104 44.527 41.4334 46 44.5007 46C47.5679 46 50.2909 44.527 52.0013 42.25" stroke="black" stroke-width="4.25" stroke-linecap="round"/>
<path d="M38.875 34.771V34.75" stroke="black" stroke-width="4.25" stroke-linecap="round"/>
<path d="M50.125 34.771V34.75" stroke="black" stroke-width="4.25" stroke-linecap="round"/>
</svg>
