<svg width="17" height="17" viewBox="0 0 17 17" fill="none" xmlns="http://www.w3.org/2000/svg">
<path d="M3.5332 4.43675C3.5332 3.26005 4.07889 2.13155 5.05023 1.29949C6.02156 0.467442 7.33897 0 8.71265 0C10.0863 0 11.4037 0.467442 12.3751 1.29949C13.3464 2.13155 13.8921 3.26005 13.8921 4.43675C13.8921 5.61345 13.3464 6.74195 12.3751 7.57401C11.4037 8.40606 10.0863 8.8735 8.71265 8.8735C7.33897 8.8735 6.02156 8.40606 5.05023 7.57401C4.07889 6.74195 3.5332 5.61345 3.5332 4.43675ZM8.71265 7.0988C9.53685 7.0988 10.3273 6.81833 10.9101 6.3191C11.4929 5.81987 11.8203 5.14277 11.8203 4.43675C11.8203 3.73073 11.4929 3.05363 10.9101 2.5544C10.3273 2.05517 9.53685 1.7747 8.71265 1.7747C7.88844 1.7747 7.09799 2.05517 6.51519 2.5544C5.93239 3.05363 5.60498 3.73073 5.60498 4.43675C5.60498 5.14277 5.93239 5.81987 6.51519 6.3191C7.09799 6.81833 7.88844 7.0988 8.71265 7.0988Z" fill="white"/>
<path d="M2.85287 11.8401C2.08335 12.4993 1.47294 13.2819 1.0565 14.1432C0.640061 15.0044 0.425742 15.9276 0.425781 16.8598H2.49756C2.49756 15.4478 3.15239 14.0936 4.31799 13.0951C5.48359 12.0966 7.06448 11.5357 8.71289 11.5357C10.3613 11.5357 11.9422 12.0966 13.1078 13.0951C14.2734 14.0936 14.9282 15.4478 14.9282 16.8598H17C17.0001 15.4558 16.5141 14.0832 15.6035 12.9158C14.6929 11.7483 13.3986 10.8384 11.8843 10.3011C10.37 9.76381 8.70365 9.62323 7.09607 9.89716C5.48849 10.1711 4.01184 10.8472 2.85287 11.8401Z" fill="white"/>
</svg>
